<?xml version="1.0" encoding="UTF-8" standalone="no"?>
<!-- Created with Inkscape (http://www.inkscape.org/) -->

<svg
   xmlns:dc="http://purl.org/dc/elements/1.1/"
   xmlns:cc="http://creativecommons.org/ns#"
   xmlns:rdf="http://www.w3.org/1999/02/22-rdf-syntax-ns#"
   xmlns:svg="http://www.w3.org/2000/svg"
   xmlns="http://www.w3.org/2000/svg"
   xmlns:xlink="http://www.w3.org/1999/xlink"
   xmlns:sodipodi="http://sodipodi.sourceforge.net/DTD/sodipodi-0.dtd"
   xmlns:inkscape="http://www.inkscape.org/namespaces/inkscape"
   id="svg20980"
   version="1.1"
   inkscape:version="0.48.5 r10040"
   width="397.09912"
   height="58.736351"
   xml:space="preserve"
   sodipodi:docname="openmdao-logo.pdf"><metadata
     id="metadata20986"><rdf:RDF><cc:Work
         rdf:about=""><dc:format>image/svg+xml</dc:format><dc:type
           rdf:resource="http://purl.org/dc/dcmitype/StillImage" /><dc:title></dc:title></cc:Work></rdf:RDF></metadata><defs
     id="defs20984"><clipPath
       clipPathUnits="userSpaceOnUse"
       id="clipPath21088"><path
         d="m 373.098,178.419 139.141,0 0,-31.25 -139.141,0 0,31.25 z"
         id="path21090"
         inkscape:connector-curvature="0" /></clipPath><clipPath
       clipPathUnits="userSpaceOnUse"
       id="clipPath21096"><path
         d="M 0,0 554,0 554,366 0,366 0,0 z"
         id="path21098"
         inkscape:connector-curvature="0" /></clipPath><clipPath
       clipPathUnits="userSpaceOnUse"
       id="clipPath21100"><path
         d="m 373,147 140,0 0,33 -140,0 0,-33 z"
         id="path21102"
         inkscape:connector-curvature="0" /></clipPath><clipPath
       clipPathUnits="userSpaceOnUse"
       id="clipPath21104"><path
         d="m 373,147 140,0 0,33 -140,0 0,-33 z"
         id="path21106"
         inkscape:connector-curvature="0" /></clipPath><clipPath
       clipPathUnits="userSpaceOnUse"
       id="clipPath21108"><path
         d="m 373,180 140,0 0,-33 -140,0 0,33 z"
         id="path21110"
         inkscape:connector-curvature="0" /></clipPath><clipPath
       clipPathUnits="userSpaceOnUse"
       id="clipPath21112"><path
         d="m 373,147 140,0 0,33 -140,0 0,-33 z"
         id="path21114"
         inkscape:connector-curvature="0" /></clipPath><clipPath
       clipPathUnits="userSpaceOnUse"
       id="clipPath21116"><path
         d="m 373,180 140,0 0,-33 -140,0 0,33 z"
         id="path21118"
         inkscape:connector-curvature="0" /></clipPath><clipPath
       clipPathUnits="userSpaceOnUse"
       id="clipPath21120"><path
         d="m 373,147 140,0 0,33 -140,0 0,-33 z"
         id="path21122"
         inkscape:connector-curvature="0" /></clipPath><radialGradient
       fx="0"
       fy="0"
       cx="0"
       cy="0"
       r="1"
       gradientUnits="userSpaceOnUse"
       gradientTransform="matrix(50.418564,0,0,-50.418564,442.66748,163.45997)"
       spreadMethod="pad"
       id="radialGradient21128"><stop
         style="stop-opacity:1;stop-color:#ffffff"
         offset="0"
         id="stop21130" /><stop
         style="stop-opacity:1;stop-color:#4dadbc"
         offset="1"
         id="stop21132" /></radialGradient><mask
       maskUnits="userSpaceOnUse"
       x="0"
       y="0"
       width="1"
       height="1"
       id="mask21134"><g
         id="g21136"><g
           clip-path="url(#clipPath21100)"
           id="g21138"><g
             id="g21140"><g
               id="g21142" /><g
               id="g21144"><g
                 clip-path="url(#clipPath21104)"
                 id="g21146"><g
                   id="g21148" /><g
                   id="g21150"><g
                     clip-path="url(#clipPath21108)"
                     id="g21152"><g
                       id="g21154"><g
                         id="g21156" /><g
                         id="g21158"><g
                           clip-path="url(#clipPath21112)"
                           id="g21160"><g
                             id="g21162" /><g
                             id="g21164"><g
                               clip-path="url(#clipPath21116)"
                               id="g21166"><g
                                 id="g21168"><g
                                   id="g21170" /><g
                                   id="g21172"><g
                                   clip-path="url(#clipPath21120)"
                                   id="g21174"><g
                                   id="g21176"><g
                                   id="g21178"><g
                                   id="g21180"><g
                                   id="g21182"><path
                                   d="m 373.098,174.086 c 0,2.75 2.25,5 5,5 l 129.14,0 c 2.75,0 5,-2.25 5,-5 l 0,-21.25 c 0,-2.75 -2.25,-5 -5,-5 l -129.14,0 c -2.75,0 -5,2.25 -5,5 l 0,21.25 z"
                                   style="fill:url(#radialGradient21128);stroke:none"
                                   id="path21184"
                                   inkscape:connector-curvature="0" /></g></g></g></g></g></g></g></g></g></g></g></g></g></g></g></g></g></g></g></mask><clipPath
       clipPathUnits="userSpaceOnUse"
       id="clipPath21186"><path
         d="m 373,147 140,0 0,33 -140,0 0,-33 z"
         id="path21188"
         inkscape:connector-curvature="0" /></clipPath><clipPath
       clipPathUnits="userSpaceOnUse"
       id="clipPath21190"><path
         d="m 373,147 140,0 0,33 -140,0 0,-33 z"
         id="path21192"
         inkscape:connector-curvature="0" /></clipPath><clipPath
       clipPathUnits="userSpaceOnUse"
       id="clipPath21194"><path
         d="m 373,180 140,0 0,-33 -140,0 0,33 z"
         id="path21196"
         inkscape:connector-curvature="0" /></clipPath><clipPath
       clipPathUnits="userSpaceOnUse"
       id="clipPath21198"><path
         d="m 373,147 140,0 0,33 -140,0 0,-33 z"
         id="path21200"
         inkscape:connector-curvature="0" /></clipPath><clipPath
       clipPathUnits="userSpaceOnUse"
       id="clipPath21202"><path
         d="m 373,180 140,0 0,-33 -140,0 0,33 z"
         id="path21204"
         inkscape:connector-curvature="0" /></clipPath><clipPath
       clipPathUnits="userSpaceOnUse"
       id="clipPath21206"><path
         d="m 373,147 140,0 0,33 -140,0 0,-33 z"
         id="path21208"
         inkscape:connector-curvature="0" /></clipPath><radialGradient
       fx="0"
       fy="0"
       cx="0"
       cy="0"
       r="1"
       gradientUnits="userSpaceOnUse"
       gradientTransform="matrix(50.418564,0,0,-50.418564,442.66748,163.45997)"
       spreadMethod="pad"
       id="radialGradient21214"><stop
         style="stop-opacity:1;stop-color:#ffffff"
         offset="0"
         id="stop21216" /><stop
         style="stop-opacity:1;stop-color:#4dadbc"
         offset="1"
         id="stop21218" /></radialGradient><clipPath
       clipPathUnits="userSpaceOnUse"
       id="clipPath21292"><path
         d="m 408.949,174.478 67.438,0 0,-23.371 -67.438,0 0,23.371 z"
         id="path21294"
         inkscape:connector-curvature="0" /></clipPath><clipPath
       clipPathUnits="userSpaceOnUse"
       id="clipPath21300"><path
         d="m 408,151 69,0 0,25 -69,0 0,-25 z"
         id="path21302"
         inkscape:connector-curvature="0" /></clipPath><clipPath
       clipPathUnits="userSpaceOnUse"
       id="clipPath21304"><path
         d="m 408,176 69,0 0,-25 -69,0 0,25 z"
         id="path21306"
         inkscape:connector-curvature="0" /></clipPath><clipPath
       clipPathUnits="userSpaceOnUse"
       id="clipPath21308"><path
         d="m 408,151 69,0 0,25 -69,0 0,-25 z"
         id="path21310"
         inkscape:connector-curvature="0" /></clipPath><clipPath
       clipPathUnits="userSpaceOnUse"
       id="clipPath21312"><path
         d="m 408.949,175.145 67.438,0 0,-10.871 -67.438,0 0,10.871 z"
         id="path21314"
         inkscape:connector-curvature="0" /></clipPath><clipPath
       clipPathUnits="userSpaceOnUse"
       id="clipPath21316"><path
         d="m 409,164 66,0 0,11 -66,0 0,-11 z"
         id="path21318"
         inkscape:connector-curvature="0" /></clipPath><clipPath
       clipPathUnits="userSpaceOnUse"
       id="clipPath21320"><path
         d="m 409,175 66,0 0,-11 -66,0 0,11 z"
         id="path21322"
         inkscape:connector-curvature="0" /></clipPath><clipPath
       clipPathUnits="userSpaceOnUse"
       id="clipPath21324"><path
         d="m 409,164 66,0 0,11 -66,0 0,-11 z"
         id="path21326"
         inkscape:connector-curvature="0" /></clipPath><clipPath
       clipPathUnits="userSpaceOnUse"
       id="clipPath21328"><path
         d="m 418.711,162.645 45.18,0 0,-10.871 -45.18,0 0,10.871 z"
         id="path21330"
         inkscape:connector-curvature="0" /></clipPath><clipPath
       clipPathUnits="userSpaceOnUse"
       id="clipPath21332"><path
         d="m 419,154 46,0 0,8 -46,0 0,-8 z"
         id="path21334"
         inkscape:connector-curvature="0" /></clipPath><clipPath
       clipPathUnits="userSpaceOnUse"
       id="clipPath21336"><path
         d="m 419,162 46,0 0,-8 -46,0 0,8 z"
         id="path21338"
         inkscape:connector-curvature="0" /></clipPath><clipPath
       clipPathUnits="userSpaceOnUse"
       id="clipPath21340"><path
         d="m 419,154 46,0 0,8 -46,0 0,-8 z"
         id="path21342"
         inkscape:connector-curvature="0" /></clipPath><clipPath
       clipPathUnits="userSpaceOnUse"
       id="clipPath21432"><path
         d="m 65.035,336.653 139.137,0 0,-31.254 -139.137,0 0,31.254 z"
         id="path21434"
         inkscape:connector-curvature="0" /></clipPath><clipPath
       clipPathUnits="userSpaceOnUse"
       id="clipPath21440"><path
         d="M 0,0 554,0 554,366 0,366 0,0 z"
         id="path21442"
         inkscape:connector-curvature="0" /></clipPath><clipPath
       clipPathUnits="userSpaceOnUse"
       id="clipPath21444"><path
         d="m 65,306 140,0 0,32 -140,0 0,-32 z"
         id="path21446"
         inkscape:connector-curvature="0" /></clipPath><clipPath
       clipPathUnits="userSpaceOnUse"
       id="clipPath21448"><path
         d="m 65,306 140,0 0,32 -140,0 0,-32 z"
         id="path21450"
         inkscape:connector-curvature="0" /></clipPath><clipPath
       clipPathUnits="userSpaceOnUse"
       id="clipPath21452"><path
         d="m 65,338 140,0 0,-32 -140,0 0,32 z"
         id="path21454"
         inkscape:connector-curvature="0" /></clipPath><clipPath
       clipPathUnits="userSpaceOnUse"
       id="clipPath21456"><path
         d="m 65,306 140,0 0,32 -140,0 0,-32 z"
         id="path21458"
         inkscape:connector-curvature="0" /></clipPath><clipPath
       clipPathUnits="userSpaceOnUse"
       id="clipPath21460"><path
         d="m 65,338 140,0 0,-32 -140,0 0,32 z"
         id="path21462"
         inkscape:connector-curvature="0" /></clipPath><clipPath
       clipPathUnits="userSpaceOnUse"
       id="clipPath21464"><path
         d="m 65,306 140,0 0,32 -140,0 0,-32 z"
         id="path21466"
         inkscape:connector-curvature="0" /></clipPath><radialGradient
       fx="0"
       fy="0"
       cx="0"
       cy="0"
       r="1"
       gradientUnits="userSpaceOnUse"
       gradientTransform="matrix(50.418564,0,0,-50.418564,134.60352,321.69337)"
       spreadMethod="pad"
       id="radialGradient21472"><stop
         style="stop-opacity:1;stop-color:#ffffff"
         offset="0"
         id="stop21474" /><stop
         style="stop-opacity:1;stop-color:#4dadbc"
         offset="1"
         id="stop21476" /></radialGradient><mask
       maskUnits="userSpaceOnUse"
       x="0"
       y="0"
       width="1"
       height="1"
       id="mask21478"><g
         id="g21480"><g
           clip-path="url(#clipPath21444)"
           id="g21482"><g
             id="g21484"><g
               id="g21486" /><g
               id="g21488"><g
                 clip-path="url(#clipPath21448)"
                 id="g21490"><g
                   id="g21492" /><g
                   id="g21494"><g
                     clip-path="url(#clipPath21452)"
                     id="g21496"><g
                       id="g21498"><g
                         id="g21500" /><g
                         id="g21502"><g
                           clip-path="url(#clipPath21456)"
                           id="g21504"><g
                             id="g21506" /><g
                             id="g21508"><g
                               clip-path="url(#clipPath21460)"
                               id="g21510"><g
                                 id="g21512"><g
                                   id="g21514" /><g
                                   id="g21516"><g
                                   clip-path="url(#clipPath21464)"
                                   id="g21518"><g
                                   id="g21520"><g
                                   id="g21522"><g
                                   id="g21524"><g
                                   id="g21526"><path
                                   d="m 65.035,332.32 c 0,2.75 2.25,5 5,5 l 129.137,0 c 2.75,0 5,-2.25 5,-5 l 0,-21.254 c 0,-2.75 -2.25,-5 -5,-5 l -129.137,0 c -2.75,0 -5,2.25 -5,5 l 0,21.254 z"
                                   style="fill:url(#radialGradient21472);stroke:none"
                                   id="path21528"
                                   inkscape:connector-curvature="0" /></g></g></g></g></g></g></g></g></g></g></g></g></g></g></g></g></g></g></g></mask><clipPath
       clipPathUnits="userSpaceOnUse"
       id="clipPath21530"><path
         d="m 65,306 140,0 0,32 -140,0 0,-32 z"
         id="path21532"
         inkscape:connector-curvature="0" /></clipPath><clipPath
       clipPathUnits="userSpaceOnUse"
       id="clipPath21534"><path
         d="m 65,306 140,0 0,32 -140,0 0,-32 z"
         id="path21536"
         inkscape:connector-curvature="0" /></clipPath><clipPath
       clipPathUnits="userSpaceOnUse"
       id="clipPath21538"><path
         d="m 65,338 140,0 0,-32 -140,0 0,32 z"
         id="path21540"
         inkscape:connector-curvature="0" /></clipPath><clipPath
       clipPathUnits="userSpaceOnUse"
       id="clipPath21542"><path
         d="m 65,306 140,0 0,32 -140,0 0,-32 z"
         id="path21544"
         inkscape:connector-curvature="0" /></clipPath><clipPath
       clipPathUnits="userSpaceOnUse"
       id="clipPath21546"><path
         d="m 65,338 140,0 0,-32 -140,0 0,32 z"
         id="path21548"
         inkscape:connector-curvature="0" /></clipPath><clipPath
       clipPathUnits="userSpaceOnUse"
       id="clipPath21550"><path
         d="m 65,306 140,0 0,32 -140,0 0,-32 z"
         id="path21552"
         inkscape:connector-curvature="0" /></clipPath><radialGradient
       fx="0"
       fy="0"
       cx="0"
       cy="0"
       r="1"
       gradientUnits="userSpaceOnUse"
       gradientTransform="matrix(50.418564,0,0,-50.418564,134.60352,321.69337)"
       spreadMethod="pad"
       id="radialGradient21558"><stop
         style="stop-opacity:1;stop-color:#ffffff"
         offset="0"
         id="stop21560" /><stop
         style="stop-opacity:1;stop-color:#4dadbc"
         offset="1"
         id="stop21562" /></radialGradient><clipPath
       clipPathUnits="userSpaceOnUse"
       id="clipPath21640"><path
         d="m 343,332.11 164,0 0,-31.254 -164,0 0,31.254 z"
         id="path21642"
         inkscape:connector-curvature="0" /></clipPath><clipPath
       clipPathUnits="userSpaceOnUse"
       id="clipPath21648"><path
         d="M 0,0 554,0 554,366 0,366 0,0 z"
         id="path21650"
         inkscape:connector-curvature="0" /></clipPath><clipPath
       clipPathUnits="userSpaceOnUse"
       id="clipPath21652"><path
         d="m 343,301 164,0 0,32 -164,0 0,-32 z"
         id="path21654"
         inkscape:connector-curvature="0" /></clipPath><clipPath
       clipPathUnits="userSpaceOnUse"
       id="clipPath21656"><path
         d="m 343,301 164,0 0,32 -164,0 0,-32 z"
         id="path21658"
         inkscape:connector-curvature="0" /></clipPath><clipPath
       clipPathUnits="userSpaceOnUse"
       id="clipPath21660"><path
         d="m 343,333 164,0 0,-32 -164,0 0,32 z"
         id="path21662"
         inkscape:connector-curvature="0" /></clipPath><clipPath
       clipPathUnits="userSpaceOnUse"
       id="clipPath21664"><path
         d="m 343,301 164,0 0,32 -164,0 0,-32 z"
         id="path21666"
         inkscape:connector-curvature="0" /></clipPath><clipPath
       clipPathUnits="userSpaceOnUse"
       id="clipPath21668"><path
         d="m 343,333 164,0 0,-32 -164,0 0,32 z"
         id="path21670"
         inkscape:connector-curvature="0" /></clipPath><clipPath
       clipPathUnits="userSpaceOnUse"
       id="clipPath21672"><path
         d="m 343,301 164,0 0,32 -164,0 0,-32 z"
         id="path21674"
         inkscape:connector-curvature="0" /></clipPath><radialGradient
       fx="0"
       fy="0"
       cx="0"
       cy="0"
       r="1"
       gradientUnits="userSpaceOnUse"
       gradientTransform="matrix(69.915436,0,0,-69.915436,424.60303,317.15089)"
       spreadMethod="pad"
       id="radialGradient21680"><stop
         style="stop-opacity:1;stop-color:#ffffff"
         offset="0"
         id="stop21682" /><stop
         style="stop-opacity:1;stop-color:#4dadbc"
         offset="1"
         id="stop21684" /></radialGradient><mask
       maskUnits="userSpaceOnUse"
       x="0"
       y="0"
       width="1"
       height="1"
       id="mask21686"><g
         id="g21688"><g
           clip-path="url(#clipPath21652)"
           id="g21690"><g
             id="g21692"><g
               id="g21694" /><g
               id="g21696"><g
                 clip-path="url(#clipPath21656)"
                 id="g21698"><g
                   id="g21700" /><g
                   id="g21702"><g
                     clip-path="url(#clipPath21660)"
                     id="g21704"><g
                       id="g21706"><g
                         id="g21708" /><g
                         id="g21710"><g
                           clip-path="url(#clipPath21664)"
                           id="g21712"><g
                             id="g21714" /><g
                             id="g21716"><g
                               clip-path="url(#clipPath21668)"
                               id="g21718"><g
                                 id="g21720"><g
                                   id="g21722" /><g
                                   id="g21724"><g
                                   clip-path="url(#clipPath21672)"
                                   id="g21726"><g
                                   id="g21728"><g
                                   id="g21730"><g
                                   id="g21732"><g
                                   id="g21734"><path
                                   d="m 343.816,327.777 c 0,2.75 2.25,5 5,5 l 153.141,0 c 2.75,0 5,-2.25 5,-5 l 0,-21.254 c 0,-2.75 -2.25,-5 -5,-5 l -153.141,0 c -2.75,0 -5,2.25 -5,5 l 0,21.254 z"
                                   style="fill:url(#radialGradient21680);stroke:none"
                                   id="path21736"
                                   inkscape:connector-curvature="0" /></g></g></g></g></g></g></g></g></g></g></g></g></g></g></g></g></g></g></g></mask><clipPath
       clipPathUnits="userSpaceOnUse"
       id="clipPath21738"><path
         d="m 343,301 164,0 0,32 -164,0 0,-32 z"
         id="path21740"
         inkscape:connector-curvature="0" /></clipPath><clipPath
       clipPathUnits="userSpaceOnUse"
       id="clipPath21742"><path
         d="m 343,301 164,0 0,32 -164,0 0,-32 z"
         id="path21744"
         inkscape:connector-curvature="0" /></clipPath><clipPath
       clipPathUnits="userSpaceOnUse"
       id="clipPath21746"><path
         d="m 343,333 164,0 0,-32 -164,0 0,32 z"
         id="path21748"
         inkscape:connector-curvature="0" /></clipPath><clipPath
       clipPathUnits="userSpaceOnUse"
       id="clipPath21750"><path
         d="m 343,301 164,0 0,32 -164,0 0,-32 z"
         id="path21752"
         inkscape:connector-curvature="0" /></clipPath><clipPath
       clipPathUnits="userSpaceOnUse"
       id="clipPath21754"><path
         d="m 343,333 164,0 0,-32 -164,0 0,32 z"
         id="path21756"
         inkscape:connector-curvature="0" /></clipPath><clipPath
       clipPathUnits="userSpaceOnUse"
       id="clipPath21758"><path
         d="m 343,301 164,0 0,32 -164,0 0,-32 z"
         id="path21760"
         inkscape:connector-curvature="0" /></clipPath><radialGradient
       fx="0"
       fy="0"
       cx="0"
       cy="0"
       r="1"
       gradientUnits="userSpaceOnUse"
       gradientTransform="matrix(69.915436,0,0,-69.915436,424.60303,317.15089)"
       spreadMethod="pad"
       id="radialGradient21766"><stop
         style="stop-opacity:1;stop-color:#ffffff"
         offset="0"
         id="stop21768" /><stop
         style="stop-opacity:1;stop-color:#4dadbc"
         offset="1"
         id="stop21770" /></radialGradient><clipPath
       clipPathUnits="userSpaceOnUse"
       id="clipPath21852"><path
         d="m 251.477,230.478 c 0,-31.887 -37.52,-57.739 -83.805,-57.739 -46.285,0 -83.809,25.852 -83.809,57.739 0,31.89 37.524,57.742 83.809,57.742 46.285,0 83.805,-25.852 83.805,-57.742 z"
         id="path21854"
         inkscape:connector-curvature="0" /></clipPath><clipPath
       clipPathUnits="userSpaceOnUse"
       id="clipPath21860"><path
         d="m 123.68748,90.496563 161.4115,0 0,160.805687 -161.4115,0 0,-160.805687 z"
         id="path21862"
         inkscape:connector-curvature="0" /></clipPath><radialGradient
       fx="204.55643"
       fy="170.69775"
       cx="204.55643"
       cy="170.69775"
       r="80.043816"
       gradientUnits="userSpaceOnUse"
       spreadMethod="pad"
       id="radialGradient21864"><stop
         style="stop-opacity:1;stop-color:#ffffff"
         offset="0"
         id="stop21866" /><stop
         style="stop-opacity:0.73504234;stop-color:#ffffff"
         offset="0.682622"
         id="stop21868" /><stop
         style="stop-opacity:0.73504234;stop-color:#ffffff"
         offset="0.682622"
         id="stop21870" /><stop
         style="stop-opacity:0.38461891;stop-color:#ffffff"
         offset="0.900241"
         id="stop21872" /><stop
         style="stop-opacity:0;stop-color:#ffffff"
         offset="1"
         id="stop21874" /></radialGradient><mask
       maskUnits="userSpaceOnUse"
       x="0"
       y="0"
       width="1"
       height="1"
       id="mask21876"><g
         id="g21878"><g
           clip-path="url(#clipPath21860)"
           id="g21880"><path
             d="m 123.68748,90.496563 161.4115,0 0,160.805687 -161.4115,0 0,-160.805687 z"
             style="fill:url(#radialGradient21864);stroke:none"
             id="path21882"
             inkscape:connector-curvature="0" /></g></g></mask><radialGradient
       fx="204.55643"
       fy="170.69775"
       cx="204.55643"
       cy="170.69775"
       r="80.043816"
       gradientUnits="userSpaceOnUse"
       spreadMethod="pad"
       id="radialGradient21886"><stop
         style="stop-opacity:1;stop-color:#1bdefc"
         offset="0"
         id="stop21888" /><stop
         style="stop-opacity:1;stop-color:#1b93fc"
         offset="0.530947"
         id="stop21890" /><stop
         style="stop-opacity:1;stop-color:#1b80fc"
         offset="0.682622"
         id="stop21892" /><stop
         style="stop-opacity:1;stop-color:#62a8fd"
         offset="0.900241"
         id="stop21894" /><stop
         style="stop-opacity:1;stop-color:#ffffff"
         offset="1"
         id="stop21896" /></radialGradient><clipPath
       clipPathUnits="userSpaceOnUse"
       id="clipPath21990"><path
         d="m 443.867,95.735 c 0,-27.203 -41.168,-49.257 -91.949,-49.257 -50.781,0 -91.945,22.054 -91.945,49.257 0,27.207 41.164,49.258 91.945,49.258 50.781,0 91.949,-22.051 91.949,-49.258 z"
         id="path21992"
         inkscape:connector-curvature="0" /></clipPath><clipPath
       clipPathUnits="userSpaceOnUse"
       id="clipPath21998"><path
         d="m 336.74857,234.21716 231.25,0 0,231.00002 -231.25,0 0,-231.00002 z"
         id="path22000"
         inkscape:connector-curvature="0" /></clipPath><radialGradient
       fx="452.89749"
       fy="349.94116"
       cx="452.89749"
       cy="349.94116"
       r="114.93472"
       gradientUnits="userSpaceOnUse"
       spreadMethod="pad"
       id="radialGradient22002"><stop
         style="stop-opacity:1;stop-color:#ffffff"
         offset="0"
         id="stop22004" /><stop
         style="stop-opacity:0.7435874;stop-color:#ffffff"
         offset="0.726514"
         id="stop22006" /><stop
         style="stop-opacity:0.29913787;stop-color:#ffffff"
         offset="0.924654"
         id="stop22008" /><stop
         style="stop-opacity:0;stop-color:#ffffff"
         offset="1"
         id="stop22010" /></radialGradient><mask
       maskUnits="userSpaceOnUse"
       x="0"
       y="0"
       width="1"
       height="1"
       id="mask22012"><g
         id="g22014"><g
           clip-path="url(#clipPath21998)"
           id="g22016"><path
             d="m 336.74857,234.21716 231.25,0 0,231.00002 -231.25,0 0,-231.00002 z"
             style="fill:url(#radialGradient22002);stroke:none"
             id="path22018"
             inkscape:connector-curvature="0" /></g></g></mask><radialGradient
       fx="452.89749"
       fy="349.94116"
       cx="452.89749"
       cy="349.94116"
       r="114.93472"
       gradientUnits="userSpaceOnUse"
       spreadMethod="pad"
       id="radialGradient22022"><stop
         style="stop-opacity:1;stop-color:#00c745"
         offset="0"
         id="stop22024" /><stop
         style="stop-opacity:1;stop-color:#009142"
         offset="0.726514"
         id="stop22026" /><stop
         style="stop-opacity:1;stop-color:#57c96e"
         offset="0.924654"
         id="stop22028" /><stop
         style="stop-opacity:1;stop-color:#ffffff"
         offset="1"
         id="stop22030" /></radialGradient><radialGradient
       inkscape:collect="always"
       xlink:href="#radialGradient21886"
       id="radialGradient22315"
       gradientUnits="userSpaceOnUse"
       spreadMethod="pad"
       cx="204.55643"
       cy="170.69775"
       fx="204.55643"
       fy="170.69775"
       r="80.043816" /><radialGradient
       inkscape:collect="always"
       xlink:href="#radialGradient22022"
       id="radialGradient22317"
       gradientUnits="userSpaceOnUse"
       spreadMethod="pad"
       cx="452.89749"
       cy="349.94116"
       fx="452.89749"
       fy="349.94116"
       r="114.93472" /><radialGradient
       inkscape:collect="always"
       xlink:href="#radialGradient22022"
       id="radialGradient22433"
       gradientUnits="userSpaceOnUse"
       spreadMethod="pad"
       cx="452.89749"
       cy="349.94116"
       fx="452.89749"
       fy="349.94116"
       r="114.93472" /><radialGradient
       inkscape:collect="always"
       xlink:href="#radialGradient21886"
       id="radialGradient22445"
       gradientUnits="userSpaceOnUse"
       spreadMethod="pad"
       cx="204.55643"
       cy="170.69775"
       fx="204.55643"
       fy="170.69775"
       r="80.043816" /><radialGradient
       inkscape:collect="always"
       xlink:href="#radialGradient21766"
       id="radialGradient22452"
       gradientUnits="userSpaceOnUse"
       gradientTransform="matrix(69.915436,0,0,-69.915436,424.60303,317.15089)"
       spreadMethod="pad"
       cx="0"
       cy="0"
       fx="0"
       fy="0"
       r="1" /><radialGradient
       inkscape:collect="always"
       xlink:href="#radialGradient21214"
       id="radialGradient22532"
       gradientUnits="userSpaceOnUse"
       gradientTransform="matrix(50.418564,0,0,-50.418564,442.66748,163.45997)"
       spreadMethod="pad"
       cx="0"
       cy="0"
       fx="0"
       fy="0"
       r="1" /><radialGradient
       inkscape:collect="always"
       xlink:href="#radialGradient21214"
       id="radialGradient22568"
       gradientUnits="userSpaceOnUse"
       gradientTransform="matrix(50.418564,0,0,-50.418564,442.66748,163.45997)"
       spreadMethod="pad"
       cx="0"
       cy="0"
       fx="0"
       fy="0"
       r="1" /><radialGradient
       inkscape:collect="always"
       xlink:href="#radialGradient21766"
       id="radialGradient22646"
       gradientUnits="userSpaceOnUse"
       gradientTransform="matrix(69.915436,0,0,-69.915436,424.60303,317.15089)"
       spreadMethod="pad"
       cx="0"
       cy="0"
       fx="0"
       fy="0"
       r="1" /><radialGradient
       inkscape:collect="always"
       xlink:href="#radialGradient21886"
       id="radialGradient22681"
       gradientUnits="userSpaceOnUse"
       spreadMethod="pad"
       cx="204.55643"
       cy="170.69775"
       fx="204.55643"
       fy="170.69775"
       r="80.043816" /><radialGradient
       inkscape:collect="always"
       xlink:href="#radialGradient22022"
       id="radialGradient22687"
       gradientUnits="userSpaceOnUse"
       spreadMethod="pad"
       cx="452.89749"
       cy="349.94116"
       fx="452.89749"
       fy="349.94116"
       r="114.93472" /><radialGradient
       inkscape:collect="always"
       xlink:href="#radialGradient22022"
       id="radialGradient22693"
       gradientUnits="userSpaceOnUse"
       spreadMethod="pad"
       cx="452.89749"
       cy="349.94116"
       fx="452.89749"
       fy="349.94116"
       r="114.93472" /><radialGradient
       inkscape:collect="always"
       xlink:href="#radialGradient21886"
       id="radialGradient22698"
       gradientUnits="userSpaceOnUse"
       spreadMethod="pad"
       cx="204.55643"
       cy="170.69775"
       fx="204.55643"
       fy="170.69775"
       r="80.043816" /><radialGradient
       inkscape:collect="always"
       xlink:href="#radialGradient21766"
       id="radialGradient22703"
       gradientUnits="userSpaceOnUse"
       gradientTransform="matrix(69.915436,0,0,-69.915436,424.60303,317.15089)"
       spreadMethod="pad"
       cx="0"
       cy="0"
       fx="0"
       fy="0"
       r="1" /><radialGradient
       inkscape:collect="always"
       xlink:href="#radialGradient21214"
       id="radialGradient22777"
       gradientUnits="userSpaceOnUse"
       gradientTransform="matrix(50.418564,0,0,-50.418564,442.66748,163.45997)"
       spreadMethod="pad"
       cx="0"
       cy="0"
       fx="0"
       fy="0"
       r="1" /><radialGradient
       inkscape:collect="always"
       xlink:href="#radialGradient21214"
       id="radialGradient22810"
       gradientUnits="userSpaceOnUse"
       gradientTransform="matrix(50.418564,0,0,-50.418564,442.66748,163.45997)"
       spreadMethod="pad"
       cx="0"
       cy="0"
       fx="0"
       fy="0"
       r="1" /><radialGradient
       inkscape:collect="always"
       xlink:href="#radialGradient21766"
       id="radialGradient22882"
       gradientUnits="userSpaceOnUse"
       gradientTransform="matrix(69.915436,0,0,-69.915436,424.60303,317.15089)"
       spreadMethod="pad"
       cx="0"
       cy="0"
       fx="0"
       fy="0"
       r="1" /><radialGradient
       inkscape:collect="always"
       xlink:href="#radialGradient21886"
       id="radialGradient22914"
       gradientUnits="userSpaceOnUse"
       spreadMethod="pad"
       cx="204.55643"
       cy="170.69775"
       fx="204.55643"
       fy="170.69775"
       r="80.043816" /><radialGradient
       inkscape:collect="always"
       xlink:href="#radialGradient21886"
       id="radialGradient22917"
       gradientUnits="userSpaceOnUse"
       spreadMethod="pad"
       cx="204.55643"
       cy="170.69775"
       fx="204.55643"
       fy="170.69775"
       r="80.043816"
       gradientTransform="matrix(1.047013,0,0,-0.721368,-46.50245,353.61429)" /><radialGradient
       inkscape:collect="always"
       xlink:href="#radialGradient22022"
       id="radialGradient22919"
       gradientUnits="userSpaceOnUse"
       spreadMethod="pad"
       cx="452.89749"
       cy="349.94116"
       fx="452.89749"
       fy="349.94116"
       r="114.93472" /><radialGradient
       inkscape:collect="always"
       xlink:href="#radialGradient22022"
       id="radialGradient22922"
       gradientUnits="userSpaceOnUse"
       spreadMethod="pad"
       cx="452.89749"
       cy="349.94116"
       fx="452.89749"
       fy="349.94116"
       r="114.93472"
       gradientTransform="matrix(0.8,0,0,-0.428571,-10.398855,245.71178)" /><radialGradient
       inkscape:collect="always"
       xlink:href="#radialGradient21766"
       id="radialGradient22924"
       gradientUnits="userSpaceOnUse"
       gradientTransform="matrix(69.915436,0,0,-69.915436,424.60303,317.15089)"
       spreadMethod="pad"
       cx="0"
       cy="0"
       fx="0"
       fy="0"
       r="1" /><radialGradient
       inkscape:collect="always"
       xlink:href="#radialGradient21214"
       id="radialGradient22993"
       gradientUnits="userSpaceOnUse"
       gradientTransform="matrix(50.418564,0,0,-50.418564,442.66748,163.45997)"
       spreadMethod="pad"
       cx="0"
       cy="0"
       fx="0"
       fy="0"
       r="1" /><radialGradient
       inkscape:collect="always"
       xlink:href="#radialGradient21214"
       id="radialGradient23024"
       gradientUnits="userSpaceOnUse"
       gradientTransform="matrix(50.418564,0,0,-50.418564,442.66748,163.45997)"
       spreadMethod="pad"
       cx="0"
       cy="0"
       fx="0"
       fy="0"
       r="1" /><radialGradient
       inkscape:collect="always"
       xlink:href="#radialGradient21766"
       id="radialGradient23091"
       gradientUnits="userSpaceOnUse"
       gradientTransform="matrix(69.915436,0,0,-69.915436,424.60303,317.15089)"
       spreadMethod="pad"
       cx="0"
       cy="0"
       fx="0"
       fy="0"
       r="1" /><radialGradient
       inkscape:collect="always"
       xlink:href="#radialGradient21766"
       id="radialGradient23121"
       gradientUnits="userSpaceOnUse"
       gradientTransform="matrix(69.915436,0,0,-69.915436,424.60303,317.15089)"
       spreadMethod="pad"
       cx="0"
       cy="0"
       fx="0"
       fy="0"
       r="1" /><radialGradient
       inkscape:collect="always"
       xlink:href="#radialGradient21214"
       id="radialGradient23185"
       gradientUnits="userSpaceOnUse"
       gradientTransform="matrix(50.418564,0,0,-50.418564,442.66748,163.45997)"
       spreadMethod="pad"
       cx="0"
       cy="0"
       fx="0"
       fy="0"
       r="1" /><radialGradient
       inkscape:collect="always"
       xlink:href="#radialGradient21214"
       id="radialGradient23213"
       gradientUnits="userSpaceOnUse"
       gradientTransform="matrix(50.418564,0,0,-50.418564,442.66748,163.45997)"
       spreadMethod="pad"
       cx="0"
       cy="0"
       fx="0"
       fy="0"
       r="1" /><radialGradient
       inkscape:collect="always"
       xlink:href="#radialGradient21766"
       id="radialGradient23273"
       gradientUnits="userSpaceOnUse"
       gradientTransform="matrix(69.915436,0,0,-69.915436,424.60303,317.15089)"
       spreadMethod="pad"
       cx="0"
       cy="0"
       fx="0"
       fy="0"
       r="1" /><radialGradient
       inkscape:collect="always"
       xlink:href="#radialGradient21214"
       id="radialGradient23299"
       gradientUnits="userSpaceOnUse"
       gradientTransform="matrix(50.418564,0,0,-50.418564,442.66748,163.45997)"
       spreadMethod="pad"
       cx="0"
       cy="0"
       fx="0"
       fy="0"
       r="1" /></defs><sodipodi:namedview
     pagecolor="#ffffff"
     bordercolor="#666666"
     borderopacity="1"
     objecttolerance="10"
     gridtolerance="10"
     guidetolerance="10"
     inkscape:pageopacity="0"
     inkscape:pageshadow="2"
     inkscape:window-width="2560"
     inkscape:window-height="1395"
     id="namedview20982"
     showgrid="false"
     inkscape:zoom="5.8467976"
     inkscape:cx="158.48461"
     inkscape:cy="29.23814"
     inkscape:window-x="0"
     inkscape:window-y="0"
     inkscape:window-maximized="1"
     inkscape:current-layer="g20988"
     showguides="true"
     inkscape:guide-bbox="true"
     fit-margin-top="0"
     fit-margin-left="0"
     fit-margin-right="0"
     fit-margin-bottom="0"><sodipodi:guide
       orientation="0,1"
       position="134.88987,46.68058"
       id="guide23316" /></sodipodi:namedview><g
     id="g20988"
     inkscape:groupmode="layer"
     inkscape:label="complexity-cartoon-openmdao-base"
     transform="matrix(1.25,0,0,-1.25,-134.31733,257.83134)"><path
       d="m 107.96087,182.99579 c -0.008,-7.5321 5.35454,-13.63855 11.97491,-13.64538 l 292.68868,-0.30453 c 6.62037,-0.005 11.99393,6.09391 12.00169,13.62466 0.006,7.5321 -5.35453,13.63855 -11.97356,13.64806 l -292.69003,0.30185 c -6.62171,0.005 -11.99525,-6.09391 -12.00169,-13.62466 z"
       style="fill:#2611a5;fill-opacity:1;fill-rule:nonzero;stroke:#2611a5;stroke-width:1.01400041999999990;stroke-linecap:butt;stroke-linejoin:miter;stroke-miterlimit:10;stroke-opacity:1;stroke-dasharray:none"
       id="path21966"
       inkscape:connector-curvature="0" /><path
       d="m 265.56221,160.93266 -48.78412,0.0482 0.0437,43.78423 48.78411,-0.0482 -0.0437,-43.78423 z"
       style="fill:#ffffff;fill-opacity:1;fill-rule:nonzero;stroke:#2611a5;stroke-width:3;stroke-linecap:round;stroke-linejoin:round;stroke-miterlimit:10;stroke-opacity:1;stroke-dasharray:none"
       id="path21970"
       inkscape:connector-curvature="0" /><path
       d="m 366.40064,160.82799 -43.78423,0.0437 0.0437,43.78423 43.78423,-0.0437 -0.0437,-43.78422 z"
       style="fill:#ffffff;fill-opacity:1;fill-rule:nonzero;stroke:#2611a5;stroke-width:3.00000023999999987;stroke-linecap:round;stroke-linejoin:round;stroke-miterlimit:10;stroke-opacity:1;stroke-dasharray:none"
       id="path21974"
       inkscape:connector-curvature="0" /><path
       d="m 416.82022,160.77599 -43.78777,0.0459 0.0437,43.78422 43.78775,-0.0459 -0.0437,-43.78423 z"
       style="fill:#ffffff;fill-opacity:1;fill-rule:nonzero;stroke:#2611a5;stroke-width:3.00000023999999987;stroke-linecap:round;stroke-linejoin:round;stroke-miterlimit:10;stroke-opacity:1;stroke-dasharray:none"
       id="path21978"
       inkscape:connector-curvature="0" /><path
       d="m 315.98108,160.87997 -43.78423,0.0437 0.0437,43.78423 43.78423,-0.0437 -0.0437,-43.78423 z"
       style="fill:#ffffff;fill-opacity:1;fill-rule:nonzero;stroke:#2611a5;stroke-width:3.00000023999999987;stroke-linecap:round;stroke-linejoin:round;stroke-miterlimit:10;stroke-opacity:1;stroke-dasharray:none"
       id="path21982"
       inkscape:connector-curvature="0" /><path
       inkscape:connector-curvature="0"
       id="path21984"
       style="fill:#ffffff;fill-opacity:1;fill-rule:nonzero;stroke:none"
       d="m 121.82121,182.37285 c -0.003,-4.39917 3.31945,-7.70336 7.61879,-7.70728 4.30234,-0.007 7.63332,3.29349 7.63797,7.72886 0.004,4.42898 -3.32204,7.73651 -7.62139,7.74043 -4.30001,0.003 -7.62766,-3.29317 -7.63456,-7.72655 l -8.1e-4,-0.0355 z m -2.65308,0.0363 c 0.005,5.39298 4.05723,10.16984 10.29029,10.16297 6.23572,-0.004 10.2776,-4.79121 10.27229,-10.22031 -0.007,-5.44761 -4.05463,-10.20297 -10.29408,-10.19575 -6.23306,0.007 -10.27266,4.76669 -10.26931,10.21764 l 8.1e-4,0.0354 z" /><path
       inkscape:connector-curvature="0"
       id="path22102"
       style="fill:#ffffff;fill-opacity:1;fill-rule:nonzero;stroke:none"
       d="m 161.6398,182.35429 c -0.0201,3.64 -2.56086,7.72753 -7.7654,7.7322 -2.18584,0.003 -4.09765,-0.8621 -5.47946,-2.25195 -1.34695,-1.40486 -2.15165,-3.35104 -2.15737,-5.53422 3.6e-4,-2.17787 0.82961,-4.11154 2.20883,-5.49324 1.37922,-1.38171 3.31138,-2.22616 5.48592,-2.22954 4.35807,-0.003 7.70137,3.31721 7.70667,7.74129 l 8.1e-4,0.0355 z m -17.88893,9.67509 2.53779,-0.002 -0.005,-4.02605 c 1.58671,2.78832 4.36311,4.56232 8.07333,4.55593 6.53759,-0.006 9.94233,-5.32028 9.93564,-10.30326 -0.005,-5.4227 -3.94334,-10.15483 -9.94761,-10.14836 -4.27178,0.005 -7.0441,2.47774 -7.9543,4.51444 l -0.006,-3.96799 -5.7e-4,-3.32814 -2.65389,8.1e-4 0.0208,22.70438 z" /><path
       inkscape:connector-curvature="0"
       id="path22104"
       style="fill:#ffffff;fill-opacity:1;fill-rule:nonzero;stroke:none"
       d="m 184.5602,183.6738 c -0.19058,3.38876 -3.4546,6.68355 -7.46806,6.5678 -4.17528,0.002 -7.25597,-3.01768 -7.50039,-6.55309 l 14.96845,-0.0147 z m -15.02108,-2.1159 c 0.12838,-4.86761 4.28666,-7.18992 7.56111,-7.16805 2.99121,-0.004 5.39646,1.47237 6.65067,3.98107 l 2.77222,-0.002 c -0.9016,-2.08487 -2.28367,-3.66879 -3.92773,-4.72019 -1.63308,-1.04511 -3.54021,-1.55767 -5.52208,-1.55463 -6.70974,0.007 -10.2138,5.3735 -10.20866,10.18498 0.005,5.67483 4.40245,10.26391 10.22127,10.25535 2.71916,-0.003 5.22731,-0.99918 7.07673,-2.76413 2.22463,-2.14654 3.29253,-5.13464 3.01234,-8.22943 l -17.63587,0.0169 z" /><path
       inkscape:connector-curvature="0"
       id="path22106"
       style="fill:#ffffff;fill-opacity:1;fill-rule:nonzero;stroke:none"
       d="m 190.9667,191.98256 2.52649,-0.002 c -0.002,-1.09296 -0.003,-2.17454 -0.0292,-3.47142 1.09771,2.53305 3.72768,4.05576 7.17207,4.00375 6.03183,-0.10476 8.1583,-4.20461 8.15148,-8.92483 l -0.0119,-10.99779 -2.65314,1.4e-4 0.0105,10.47502 c 0.004,4.16971 -1.83265,7.0056 -6.20449,6.9643 -4.00895,-0.0461 -6.30861,-2.45438 -6.31396,-6.48042 l -0.012,-10.94539 -2.65346,0.006 0.0176,19.37326 z" /><path
       d="m 223.14878,166.13393 0.0339,34.20235 11.69308,-0.0134 6.40217,-22.05267 6.26155,22.03693 11.73727,-0.0108 -0.0326,-34.19967 -8.04218,0.008 0.30355,25.60295 -7.42061,-25.59426 -5.77961,0.005 -7.36645,25.61354 0.25341,-25.6062 -8.04352,0.008 z"
       style="fill:#231f20;fill-opacity:1;fill-rule:nonzero;stroke:#231f20;stroke-width:0.99999928;stroke-linecap:butt;stroke-linejoin:miter;stroke-miterlimit:10;stroke-opacity:1;stroke-dasharray:none"
       id="path22110"
       inkscape:connector-curvature="0" /><path
       d="m 343.89436,189.81331 -3.71007,-11.92357 7.53611,-0.006 -3.82604,11.93001 z m -7.46427,-23.79621 -9.47469,0.0125 13.57858,34.18302 7.53075,-0.008 13.09168,-34.21187 -9.56707,0.007 -1.61084,4.94853 -11.97156,0.011 -1.57685,-4.94257 z"
       style="fill:#231f20;fill-opacity:1;fill-rule:nonzero;stroke:#231f20;stroke-width:0.99999928;stroke-linecap:butt;stroke-linejoin:miter;stroke-miterlimit:10;stroke-opacity:1;stroke-dasharray:none"
       id="path22114"
       inkscape:connector-curvature="0" /><path
       d="m 385.80138,183.15774 c -0.004,-5.21998 3.55211,-10.12501 9.42008,-10.12972 6.19195,-0.006 9.20204,5.62686 9.20523,10.01948 0.007,4.43812 -2.99249,10.12442 -9.2795,10.13091 -6.0554,0.005 -9.3408,-5.16752 -9.34576,-9.97381 l -2e-5,-0.0469 z m -8.73614,-0.45154 c 0.0142,11.18435 8.61645,18.10377 18.04295,18.09673 10.53904,-0.01 18.06399,-8.24423 18.0515,-17.76578 -0.007,-9.52022 -7.50354,-17.73675 -18.13095,-17.72579 -10.76797,0.0111 -17.97127,8.56679 -17.96355,17.34799 l 9e-5,0.0468 z"
       style="fill:#231f20;fill-opacity:1;fill-rule:nonzero;stroke:#231f20;stroke-width:0.99999928;stroke-linecap:butt;stroke-linejoin:miter;stroke-miterlimit:10;stroke-opacity:1;stroke-dasharray:none"
       id="path22118"
       inkscape:connector-curvature="0" /><path
       d="m 288.18226,173.73819 3.74328,-0.005 c 6.51863,-0.004 8.36817,4.52188 8.37329,9.37493 0.002,1.93993 -0.41184,4.39304 -1.65626,6.33559 -1.01726,1.5246 -2.76942,3.14503 -6.65061,3.14769 l -3.79148,0.005 -0.0181,-18.85835 z m -8.70832,26.53869 11.3209,-0.013 c 3.83835,-0.005 10.67828,-0.0123 15.10581,-6.39095 2.35698,-3.23832 3.13774,-6.89272 3.13388,-10.63601 -0.01,-9.33546 -4.63927,-17.18945 -17.62564,-17.17204 l -11.96621,0.011 0.0313,34.20101 z"
       style="fill:#231f20;fill-opacity:1;fill-rule:nonzero;stroke:#231f20;stroke-width:0.99999928;stroke-linecap:butt;stroke-linejoin:miter;stroke-miterlimit:10;stroke-opacity:1;stroke-dasharray:none"
       id="path22122"
       inkscape:connector-curvature="0" /></g></svg>